# xmcd CD database file
#
# Track frame offsets:
#	150
#	20823
#	41005
#	60708
#	75515
#	89698
#	109055
#	129455
#	147118
#	168283
#	189970
#	218923
#
# Disc length: 3195 seconds
#
# Revision: 1
# Processed by: cddbd v1.4PL0 Copyright (c) Steve Scherf et al.
# Submitted via: CDex 1.50beta9
#
DISCID=a30c790c
DTITLE=Eric Clapton - Live Rehearsals
DYEAR=1994
DGENRE=Blues
TTITLE0=Hoochie Coochie Man
TTITLE1=I'm Tore Down
TTITLE2=Sinner's Prayer
TTITLE3=Motherless Child
TTITLE4=Malted Milk
TTITLE5=Born Under A Bad Sign
TTITLE6=Someday After A While
TTITLE7=It Hurts Me Too
TTITLE8=Forty Four
TTITLE9=Five Long Years
TTITLE10=Crossroads
TTITLE11=Ain't Nobody's Business
EXTD=YEAR: 1994
EXTT0=
EXTT1=
EXTT2=
EXTT3=
EXTT4=
EXTT5=
EXTT6=
EXTT7=
EXTT8=
EXTT9=
EXTT10=
EXTT11=
PLAYORDER=
